<svg viewBox="0 0 100 100" xmlns="http://www.w3.org/2000/svg" width="100%" height="100%" preserveAspectRatio="none" fill="none" stroke="white" stroke-width="2">
    <!-- Корпус -->
    <rect x="35" y="40" width="30" height="20" rx="3" />

    <!-- Пропеллеры -->
    <circle cx="20" cy="30" r="5" />
    <line x1="15" y1="30" x2="25" y2="30" />
    <line x1="20" y1="25" x2="20" y2="35" />

    <circle cx="80" cy="30" r="5" />
    <line x1="75" y1="30" x2="85" y2="30" />
    <line x1="80" y1="25" x2="80" y2="35" />

    <circle cx="20" cy="70" r="5" />
    <line x1="15" y1="70" x2="25" y2="70" />
    <line x1="20" y1="65" x2="20" y2="75" />

    <circle cx="80" cy="70" r="5" />
    <line x1="75" y1="70" x2="85" y2="70" />
    <line x1="80" y1="65" x2="80" y2="75" />

    <!-- Крепления пропеллеров -->
    <line x1="35" y1="40" x2="20" y2="30" />
    <line x1="65" y1="40" x2="80" y2="30" />
    <line x1="35" y1="60" x2="20" y2="70" />
    <line x1="65" y1="60" x2="80" y2="70" />

    <!-- Груз -->
    <rect x="45" y="62" width="10" height="10" />
</svg>
